Coordinates
version=1
nRows=38
nColumns=12
inDegrees=yes

Units are S.I. units (second, meters, Newtons, ...)
Angles are in degrees

endheader
time	SC_y	SC_z	SC_x	AC_y	AC_z	AC_x	GH_y	GH_z	GH_yy	EL_x	PS_y
       0.0              -20.91         -2.674          51.67          61.64         -4.758         -7.143         -167.6          5.994         -102.3           13.9          101.2
   0.02992              -20.92         -2.672          51.67          61.63         -4.759         -7.142         -167.5          6.003         -102.3           13.9          101.2
   0.05985              -20.92         -2.669          51.66          61.63         -4.759         -7.141         -167.5          6.013         -102.3           13.9          101.2
   0.08977              -20.92         -2.667          51.66          61.63          -4.76          -7.14         -167.5          6.023         -102.4           13.9          101.2
    0.1197              -20.92         -2.664          51.65          61.63          -4.76         -7.138         -167.4          6.035         -102.4           13.9          101.2
    0.1496              -20.92         -2.662          51.64          61.62         -4.761         -7.137         -167.4          6.046         -102.4           13.9          101.2
    0.1795              -20.93         -2.659          51.64          61.62         -4.762         -7.136         -167.3          6.059         -102.4           13.9          101.2
    0.2095              -20.93         -2.656          51.63          61.62         -4.763         -7.135         -167.3          6.073         -102.4           13.9          101.2
    0.2394              -20.93         -2.652          51.62          61.61         -4.763         -7.133         -167.2          6.087         -102.4           13.9          101.2
    0.2693              -20.94         -2.649          51.62          61.61         -4.764         -7.131         -167.1          6.103         -102.4           13.9          101.2
    0.2992              -20.94         -2.645          51.61           61.6         -4.765          -7.13         -167.1           6.12         -102.4           13.9          101.3
    0.3292              -20.95         -2.641           51.6           61.6         -4.766         -7.128         -167.0          6.138         -102.4           13.9          101.3
    0.3591              -20.95         -2.636          51.59          61.59         -4.767         -7.126         -166.9          6.157         -102.4           13.9          101.3
     0.389              -20.95         -2.632          51.58          61.59         -4.768         -7.124         -166.8          6.178         -102.4           13.9          101.3
    0.4189              -20.96         -2.626          51.57          61.58          -4.77         -7.121         -166.7          6.201         -102.5           13.9          101.3
    0.4489              -20.97         -2.621          51.56          61.58         -4.771         -7.119         -166.6          6.225         -102.5           13.9          101.3
    0.4788              -20.97         -2.615          51.54          61.57         -4.773         -7.116         -166.5          6.252         -102.5           13.9          101.3
    0.5087              -20.98         -2.608          51.53          61.56         -4.774         -7.113         -166.4          6.281         -102.5           13.9          101.3
    0.5386              -20.99         -2.601          51.51          61.55         -4.776          -7.11         -166.3          6.313         -102.5           13.9          101.4
    0.5686              -20.99         -2.593           51.5          61.54         -4.778         -7.106         -166.1          6.348         -102.5           13.9          101.4
    0.5985               -21.0         -2.584          51.48          61.53          -4.78         -7.102         -165.9          6.386         -102.6           13.9          101.4
    0.6284              -21.01         -2.574          51.46          61.52         -4.782         -7.098         -165.8          6.428         -102.6           13.9          101.4
    0.6583              -21.02         -2.564          51.43          61.51         -4.785         -7.093         -165.6          6.475         -102.6           13.9          101.5
    0.6883              -21.03         -2.552          51.41          61.49         -4.788         -7.087         -165.4          6.527         -102.7           13.9          101.5
    0.7182              -21.05         -2.539          51.38          61.48         -4.791         -7.082         -165.1          6.584         -102.7           13.9          101.5
    0.7481              -21.06         -2.524          51.35          61.46         -4.795         -7.075         -164.9          6.648         -102.7           13.9          101.6
     0.778              -21.08         -2.508          51.31          61.44         -4.799         -7.067         -164.6           6.72         -102.8           13.9          101.6
     0.808               -21.1          -2.49          51.27          61.42         -4.803         -7.059         -164.2            6.8         -102.8           13.9          101.7
    0.8379              -21.12         -2.469          51.23           61.4         -4.808          -7.05         -163.9          6.891         -102.9           13.9          101.7
    0.8678              -21.14         -2.445          51.18          61.37         -4.814         -7.039         -163.4          6.995         -102.9           13.9          101.8
    0.8977              -21.17         -2.418          51.12          61.34         -4.821         -7.027         -162.9          7.113         -103.0           13.9          101.9
    0.9277               -21.2         -2.387          51.05           61.3         -4.828         -7.013         -162.4          7.248         -103.1           13.9          101.9
    0.9576              -21.23         -2.351          50.98          61.26         -4.837         -6.996         -161.7          7.405         -103.2           13.9          102.0
    0.9875              -21.27          -2.31          50.89          61.21         -4.847         -6.978         -161.0          7.586         -103.3           13.9          102.1
     1.017              -21.32         -2.261          50.78          61.15         -4.859         -6.956         -160.1          7.799         -103.4           13.9          102.3
     1.047              -21.38         -2.204          50.66          61.09         -4.873          -6.93         -159.0           8.05         -103.6           13.9          102.4
     1.077              -21.45         -2.136          50.51          61.01          -4.89         -6.899         -157.8          8.348         -103.7           13.9          102.6
     1.107              -21.53         -2.055          50.34          60.91          -4.91         -6.862         -156.3          8.705         -103.9          13.91          102.8
